<svg xmlns="http://www.w3.org/2000/svg" width="34.875" height="34.875" viewBox="0 0 34.875 34.875">
  <path id="Icon_awesome-arrow-alt-circle-up" data-name="Icon awesome-arrow-alt-circle-up" d="M.563,18A17.438,17.438,0,1,1,18,35.438,17.434,17.434,0,0,1,.563,18Zm20.531,8.156V18h4.985a.844.844,0,0,0,.6-1.441L18.6,8.522a.836.836,0,0,0-1.188,0L9.323,16.559A.844.844,0,0,0,9.921,18h4.985v8.156A.846.846,0,0,0,15.75,27h4.5A.846.846,0,0,0,21.094,26.156Z" transform="translate(-0.563 -0.563)" fill="#707070"/>
</svg>
