<svg xmlns="http://www.w3.org/2000/svg" width="25" height="25" viewBox="0 0 25 25">
  <path id="Icon_ionic-ios-close-circle" data-name="Icon ionic-ios-close-circle" d="M15.875,3.375a12.5,12.5,0,1,0,12.5,12.5A12.5,12.5,0,0,0,15.875,3.375ZM19.042,20.4l-3.167-3.167L12.708,20.4a.96.96,0,1,1-1.358-1.358l3.167-3.167L11.35,12.708a.96.96,0,0,1,1.358-1.358l3.167,3.167,3.167-3.167A.96.96,0,1,1,20.4,12.708l-3.167,3.167L20.4,19.042a.965.965,0,0,1,0,1.358A.954.954,0,0,1,19.042,20.4Z" transform="translate(-3.375 -3.375)" fill="#707070"/>
</svg>
